<svg width="116" height="58" viewBox="0 0 116 58" fill="none" xmlns="http://www.w3.org/2000/svg">
<g clip-path="url(#clip0_28_45)">
<path d="M116 5.07052e-06C116 7.61668 114.5 15.1588 111.585 22.1956C108.67 29.2325 104.398 35.6264 99.0122 41.0122C93.6264 46.398 87.2325 50.6702 80.1956 53.585C73.1588 56.4998 65.6167 58 58 58C50.3833 58 42.8412 56.4998 35.8044 53.585C28.7675 50.6702 22.3736 46.398 16.9878 41.0122C11.602 35.6264 7.32976 29.2325 4.41499 22.1956C1.50021 15.1588 -6.6587e-07 7.61666 0 0L14.5 1.26763e-06C14.5 5.71251 15.6252 11.3691 17.8112 16.6467C19.9973 21.9244 23.2015 26.7198 27.2409 30.7591C31.2802 34.7985 36.0756 38.0027 41.3533 40.1888C46.6309 42.3748 52.2875 43.5 58 43.5C63.7125 43.5 69.3691 42.3748 74.6467 40.1888C79.9244 38.0027 84.7198 34.7985 88.7591 30.7591C92.7985 26.7198 96.0027 21.9244 98.1888 16.6467C100.375 11.3691 101.5 5.71251 101.5 5.07052e-06H116Z" fill="#BBDEFB"/>
</g>
<defs>
<clipPath id="clip0_28_45">
<rect width="116" height="58" fill="white"/>
</clipPath>
</defs>
</svg>
