<svg width="491" height="95" viewBox="0 0 491 95" fill="none" xmlns="http://www.w3.org/2000/svg">
<g clip-path="url(#clip0_21_43)">
<path d="M26.48 75.8C21.1467 75.8 16.72 75.0533 13.2 73.56C9.68 72.0133 7.01333 70.0133 5.2 67.56C3.38667 65.1067 2.42667 62.4933 2.32 59.72C2.32 59.2933 2.48 58.92 2.8 58.6C3.17333 58.2267 3.6 58.04 4.08 58.04H14.16C14.9067 58.04 15.4667 58.1733 15.84 58.44C16.2667 58.7067 16.64 59.0533 16.96 59.48C17.3867 60.28 17.9733 61.0533 18.72 61.8C19.52 62.5467 20.5333 63.16 21.76 63.64C23.04 64.0667 24.6133 64.28 26.48 64.28C29.5733 64.28 31.8933 63.8 33.44 62.84C35.04 61.88 35.84 60.5733 35.84 58.92C35.84 57.7467 35.4133 56.7867 34.56 56.04C33.7067 55.24 32.32 54.5467 30.4 53.96C28.5333 53.32 26.0267 52.68 22.88 52.04C18.8267 51.1867 15.36 50.0933 12.48 48.76C9.65333 47.3733 7.49333 45.5867 6 43.4C4.50667 41.16 3.76 38.3867 3.76 35.08C3.76 31.8267 4.66667 28.92 6.48 26.36C8.34667 23.8 10.9333 21.8 14.24 20.36C17.5467 18.92 21.4667 18.2 26 18.2C29.68 18.2 32.9067 18.68 35.68 19.64C38.5067 20.6 40.88 21.88 42.8 23.48C44.72 25.08 46.16 26.7867 47.12 28.6C48.1333 30.36 48.6667 32.0933 48.72 33.8C48.72 34.2267 48.56 34.6267 48.24 35C47.92 35.32 47.52 35.48 47.04 35.48H36.48C35.8933 35.48 35.3867 35.3733 34.96 35.16C34.5333 34.9467 34.16 34.6 33.84 34.12C33.52 32.9467 32.6667 31.9333 31.28 31.08C29.9467 30.1733 28.1867 29.72 26 29.72C23.6533 29.72 21.8133 30.1467 20.48 31C19.2 31.8 18.56 33.0533 18.56 34.76C18.56 35.8267 18.9067 36.76 19.6 37.56C20.3467 38.36 21.5467 39.0533 23.2 39.64C24.9067 40.2267 27.2267 40.84 30.16 41.48C35.0133 42.3867 38.9333 43.5333 41.92 44.92C44.9067 46.2533 47.0933 48.0133 48.48 50.2C49.8667 52.3333 50.56 55.0267 50.56 58.28C50.56 61.9067 49.52 65.0533 47.44 67.72C45.4133 70.3333 42.5867 72.3333 38.96 73.72C35.3333 75.1067 31.1733 75.8 26.48 75.8ZM74.9038 75C73.9971 75 73.2771 74.7333 72.7438 74.2C72.2104 73.6667 71.8904 73.0533 71.7838 72.36L63.0638 21.24C63.0104 21.1333 62.9837 21.0267 62.9837 20.92C62.9837 20.8133 62.9837 20.7333 62.9837 20.68C62.9837 20.2533 63.1438 19.88 63.4638 19.56C63.8371 19.1867 64.2371 19 64.6638 19H74.5838C76.0771 19 76.9038 19.5867 77.0638 20.76L82.2638 52.04L88.0238 33.56C88.1838 33.1333 88.4504 32.68 88.8238 32.2C89.1971 31.6667 89.8104 31.4 90.6638 31.4H96.4238C97.3304 31.4 97.9704 31.6667 98.3438 32.2C98.7171 32.68 98.9571 33.1333 99.0638 33.56L104.824 51.96L110.024 20.76C110.184 19.5867 111.01 19 112.504 19H122.424C122.904 19 123.304 19.1867 123.624 19.56C123.944 19.88 124.104 20.2533 124.104 20.68C124.104 20.7333 124.104 20.8133 124.104 20.92C124.104 21.0267 124.104 21.1333 124.104 21.24L115.384 72.36C115.277 73.0533 114.957 73.6667 114.424 74.2C113.89 74.7333 113.17 75 112.264 75H104.664C103.757 75 103.064 74.76 102.584 74.28C102.104 73.8 101.784 73.3467 101.624 72.92L93.5438 50.04L85.4638 72.92C85.3038 73.3467 84.9838 73.8 84.5038 74.28C84.0771 74.76 83.4104 75 82.5038 75H74.9038ZM142.35 75C141.763 75 141.283 74.8133 140.91 74.44C140.537 74.0667 140.35 73.5867 140.35 73V21C140.35 20.4133 140.537 19.9333 140.91 19.56C141.283 19.1867 141.763 19 142.35 19H153.07C153.657 19 154.137 19.1867 154.51 19.56C154.883 19.9333 155.07 20.4133 155.07 21V73C155.07 73.5867 154.883 74.0667 154.51 74.44C154.137 74.8133 153.657 75 153.07 75H142.35ZM188.608 75C188.021 75 187.541 74.8133 187.168 74.44C186.794 74.0667 186.608 73.5867 186.608 73V31.56H172.368C171.781 31.56 171.301 31.3733 170.928 31C170.554 30.5733 170.368 30.0933 170.368 29.56V21C170.368 20.4133 170.554 19.9333 170.928 19.56C171.301 19.1867 171.781 19 172.368 19H215.408C215.994 19 216.474 19.1867 216.848 19.56C217.221 19.9333 217.408 20.4133 217.408 21V29.56C217.408 30.0933 217.221 30.5733 216.848 31C216.474 31.3733 215.994 31.56 215.408 31.56H201.168V73C201.168 73.5867 200.981 74.0667 200.608 74.44C200.234 74.8133 199.754 75 199.168 75H188.608ZM254.779 75.8C249.712 75.8 245.365 74.9733 241.739 73.32C238.165 71.6667 235.365 69.24 233.339 66.04C231.365 62.84 230.272 58.8667 230.059 54.12C230.005 51.9333 229.979 49.5867 229.979 47.08C229.979 44.5733 230.005 42.1733 230.059 39.88C230.272 35.24 231.392 31.32 233.419 28.12C235.445 24.8667 238.272 22.4133 241.899 20.76C245.525 19.0533 249.819 18.2 254.779 18.2C258.299 18.2 261.552 18.6533 264.539 19.56C267.525 20.4133 270.139 21.6933 272.379 23.4C274.619 25.0533 276.352 27.08 277.579 29.48C278.859 31.8267 279.525 34.4933 279.579 37.48C279.632 37.96 279.472 38.36 279.099 38.68C278.779 39 278.379 39.16 277.899 39.16H267.099C266.405 39.16 265.872 39.0267 265.499 38.76C265.125 38.44 264.805 37.88 264.539 37.08C263.792 34.2533 262.565 32.3333 260.859 31.32C259.205 30.2533 257.152 29.72 254.699 29.72C251.765 29.72 249.445 30.5467 247.739 32.2C246.032 33.8 245.099 36.4933 244.939 40.28C244.779 44.6533 244.779 49.1333 244.939 53.72C245.099 57.5067 246.032 60.2267 247.739 61.88C249.445 63.48 251.765 64.28 254.699 64.28C257.152 64.28 259.232 63.7467 260.939 62.68C262.645 61.6133 263.845 59.6933 264.539 56.92C264.752 56.12 265.045 55.5867 265.419 55.32C265.845 55 266.405 54.84 267.099 54.84H277.899C278.379 54.84 278.779 55 279.099 55.32C279.472 55.64 279.632 56.04 279.579 56.52C279.525 59.5067 278.859 62.2 277.579 64.6C276.352 66.9467 274.619 68.9733 272.379 70.68C270.139 72.3333 267.525 73.6133 264.539 74.52C261.552 75.3733 258.299 75.8 254.779 75.8ZM297.991 75C297.404 75 296.924 74.8133 296.551 74.44C296.177 74.0667 295.991 73.5867 295.991 73V21C295.991 20.4133 296.177 19.9333 296.551 19.56C296.924 19.1867 297.404 19 297.991 19H308.311C308.897 19 309.377 19.1867 309.751 19.56C310.124 19.9333 310.311 20.4133 310.311 21V40.28H330.071V21C330.071 20.4133 330.257 19.9333 330.631 19.56C331.004 19.1867 331.484 19 332.071 19H342.391C342.977 19 343.457 19.1867 343.831 19.56C344.204 19.9333 344.391 20.4133 344.391 21V73C344.391 73.5867 344.204 74.0667 343.831 74.44C343.457 74.8133 342.977 75 342.391 75H332.071C331.484 75 331.004 74.8133 330.631 74.44C330.257 74.0667 330.071 73.5867 330.071 73V53.08H310.311V73C310.311 73.5867 310.124 74.0667 309.751 74.44C309.377 74.8133 308.897 75 308.311 75H297.991Z" fill="black"/>
<path d="M489 17C489 24.6167 487.5 32.1588 484.585 39.1956C481.67 46.2325 477.398 52.6264 472.012 58.0122C466.626 63.398 460.233 67.6702 453.196 70.585C446.159 73.4998 438.617 75 431 75C423.383 75 415.841 73.4998 408.804 70.585C401.767 67.6702 395.374 63.398 389.988 58.0122C384.602 52.6264 380.33 46.2325 377.415 39.1956C374.5 32.1588 373 24.6167 373 17L387.5 17C387.5 22.7125 388.625 28.3691 390.811 33.6467C392.997 38.9244 396.202 43.7198 400.241 47.7591C404.28 51.7985 409.076 55.0027 414.353 57.1888C419.631 59.3748 425.287 60.5 431 60.5C436.712 60.5 442.369 59.3748 447.647 57.1888C452.924 55.0027 457.72 51.7985 461.759 47.7591C465.798 43.7198 469.003 38.9244 471.189 33.6467C473.375 28.3691 474.5 22.7125 474.5 17H489Z" fill="#BBDEFB"/>
</g>
<defs>
<clipPath id="clip0_21_43">
<rect width="491" height="95" fill="white"/>
</clipPath>
</defs>
</svg>
